<?xml version="1.0" standalone="no"?>
<!DOCTYPE svg PUBLIC "-//W3C//DTD SVG 20010904//EN"
 "http://www.w3.org/TR/2001/REC-SVG-20010904/DTD/svg10.dtd">
<svg version="1.0" xmlns="http://www.w3.org/2000/svg"
 width="310.000000pt" height="297.000000pt" viewBox="0 0 310.000000 297.000000"
 preserveAspectRatio="xMidYMid meet">
<metadata>
Created by potrace 1.13, written by Peter Selinger 2001-2015
</metadata>
<g transform="translate(0.000000,297.000000) scale(0.100000,-0.100000)"
fill="#000000" stroke="none">
<path d="M0 1485 l0 -1485 1550 0 1550 0 0 1485 0 1485 -1550 0 -1550 0 0
-1485z m620 1310 l0 -55 55 0 55 0 0 -55 0 -55 55 0 55 0 0 -55 0 -55 285 0
285 0 0 55 0 55 55 0 55 0 0 55 0 55 55 0 55 0 0 55 0 55 55 0 55 0 0 -220 0
-220 -55 0 -55 0 0 -340 0 -340 -55 0 -55 0 0 -55 0 -55 -395 0 -395 0 0 55 0
55 -55 0 -55 0 0 340 0 340 -55 0 -55 0 0 220 0 220 55 0 55 0 0 -55z m2020
-1120 l0 -55 55 0 55 0 0 -165 0 -165 -55 0 -55 0 0 55 0 55 -55 0 -55 0 0 55
0 55 -72 0 c-40 0 -90 -3 -110 -6 l-38 -7 0 -162 0 -162 31 -7 c17 -3 42 -6
55 -6 24 0 24 -1 24 -110 l0 -110 55 0 55 0 0 -329 0 -329 -22 -6 c-13 -3 -37
-6 -54 -6 -35 0 -44 -13 -44 -66 l0 -34 -129 0 c-71 0 -143 -3 -160 -6 l-31
-6 0 61 0 61 55 0 55 0 0 55 0 55 55 0 55 0 0 73 c0 41 -3 141 -6 224 l-7 150
-47 -5 -48 -4 -7 115 -7 116 -47 3 -46 3 -3 278 -2 277 55 0 55 0 0 55 0 55
220 0 220 0 0 -55z m-1230 -269 c0 -57 3 -111 6 -120 4 -12 20 -16 55 -16 l49
0 0 -110 0 -110 55 0 55 0 0 -110 0 -110 55 0 55 0 0 -55 0 -55 -110 0 -110 0
0 -55 0 -55 165 0 165 0 0 -55 0 -55 55 0 55 0 0 -165 0 -165 -165 0 -165 0 0
110 0 110 -55 0 -55 0 0 110 0 110 -55 0 -55 0 0 110 0 110 -55 0 -55 0 0
-330 0 -330 -55 0 -55 0 0 123 c0 68 -3 218 -7 334 l-6 210 -47 -5 -46 -4 -10
58 -9 59 -55 5 -55 5 -3 130 c-2 72 0 194 3 272 l7 142 42 4 c22 2 123 4 224
5 l182 2 0 -104z m-350 -961 l0 -275 -55 0 -55 0 0 275 0 275 55 0 55 0 0
-275z"/>
<path d="M847 2293 c-4 -3 -7 -82 -7 -175 l0 -168 38 0 c86 0 82 -9 82 181 l0
169 -53 0 c-30 0 -57 -3 -60 -7z"/>
<path d="M1300 2125 l0 -175 55 0 55 0 0 175 0 175 -55 0 -55 0 0 -175z"/>
</g>
</svg>
